<svg xmlns="http://www.w3.org/2000/svg"
shape-rendering="geometricPrecision"
width="4000" height="4000" viewBox="0 0 888 888">
  <metadata>null</metadata>

<path d="
M 40.381 405.02
C 45.792 396.069 59.985 398.571 66.557 404.735
C 68.061 406.145 69.465 407.68 70.667 409.356
C 70.931 409.724 71.822 410.648 71.806 411.083
C 68.099 411.272 64.189 410.737 60.496 410.291
C 59.054 410.117 57.447 409.035 55.997 409.43
C 58.658 411.346 62.153 412.632 65.169 413.903
C 66.418 414.429 68.55 414.716 69.437 415.72
C 68.202 417.21 65.259 417.88 63.461 418.295
C 57.071 419.769 50.144 418.296 44.929 414.24
C 42.298 412.195 39.128 408.625 40.381 405.02 Z"
opacity="1" fill="rgb(84,167,102)" fill-rule="evenodd" />
<path d="
M 56.836 380.038
C 58.44 375.981 63.186 375.153 67.163 375.364
C 74.946 375.778 83.137 381.93 84.449 389.927
C 81.045 389.616 77.403 387.153 74.077 386.198
C 73.555 386.048 71.162 384.852 70.713 385.189
C 70.29 385.507 72.773 387.291 72.985 387.434
C 75.329 389.013 77.561 390.832 79.845 392.505
C 80.306 392.843 81.93 393.763 81.922 394.387
C 80.636 395.131 78.358 395.151 76.884 395.276
C 70.472 395.823 64.095 393.273 59.921 388.356
C 57.988 386.08 56.027 383.122 56.836 380.038 Z"
opacity="1" fill="rgb(179,98,162)" fill-rule="evenodd" />
<path d="
M 56.902 445.581
C 59.949 435.361 76.605 428.389 85.116 436.303
C 84.455 436.735 83.626 436.807 82.914 437.151
C 80.004 438.558 77.109 439.985 74.182 441.364
C 73.237 441.809 70.99 442.128 70.728 443.19
C 72.197 443.776 74.392 442.86 75.899 442.57
C 79.271 441.921 83.248 440.882 86.68 441.339
C 86.349 442.71 84.964 444.152 84.145 445.283
C 80.161 450.788 73.462 453.942 66.705 453.849
C 61.835 453.781 55.969 451.382 56.902 445.581 Z"
opacity="1" fill="rgb(77,145,198)" fill-rule="evenodd" />
<path d="
M 59.451 498.108
C 60.236 493.424 65.199 490.704 69.412 493.579
C 70.137 494.073 70.87 494.873 71.211 495.691
C 71.454 496.274 71.395 497.042 71.925 497.419
C 76.724 497.355 81.521 497.202 86.323 497.204
C 88.536 497.206 91.204 497.661 93.356 497.148
C 95.784 495.874 97.951 493.3 99.901 491.396
C 103.549 487.835 107.213 484.302 110.925 480.808
C 113.147 478.718 116.953 476.362 118.405 473.683
C 118.667 472.535 118.414 471.178 118.412 469.997
C 118.409 467.164 118.41 464.33 118.409 461.497
C 118.409 460.111 118.806 457.957 118.316 456.654
C 117.482 454.435 113.927 452.354 112.223 450.764
C 107.149 446.031 102.276 441.083 97.199 436.359
C 94.273 433.637 91.03 431.227 88.548 428.058
C 87.736 427.021 86.7 426.061 86.391 424.731
C 85.864 422.461 86.158 419.817 86.182 417.502
C 86.231 412.833 86.346 408.167 86.356 403.498
C 86.362 400.712 86.496 397.949 86.589 395.171
C 86.599 394.86 86.428 392.809 86.602 392.761
C 86.968 392.661 87.192 393.239 87.488 393.478
C 89.124 395.049 90.765 396.579 92.532 398.008
C 93.479 399.055 92.94 402.438 93.005 403.83
C 93.192 407.803 92.886 411.778 92.809 415.752
C 92.772 417.691 92.458 420.109 93.204 421.948
C 94.513 425.179 98.415 427.868 100.917 430.176
C 106.689 435.499 112.382 440.968 118.367 446.05
C 118.581 445.311 118.293 444.393 118.314 443.623
C 118.38 441.293 118.42 438.962 118.454 436.631
C 118.553 429.753 118.64 422.88 118.688 416
C 118.804 399.632 119.033 383.269 119.201 366.907
C 119.286 358.655 118.825 350.188 119.455 341.965
C 120.194 341.591 121.006 342.908 121.48 343.523
C 122.884 345.345 124.971 347.807 127.107 348.746
C 127.978 348.682 128.326 347.39 129.066 347.047
C 129.191 348.851 128.873 350.695 128.924 352.515
C 129.174 361.34 129.155 370.164 129.129 378.998
C 129.066 400.5 128.868 422.078 129.379 443.568
C 131.589 442.653 133.796 440.059 135.609 438.493
C 140.371 434.381 145.021 430.179 149.703 425.976
C 151.525 424.341 155.42 421.752 156.057 419.289
C 156.553 417.369 156.23 414.975 156.235 413.003
C 156.243 409.001 156.206 404.998 156.348 400.998
C 156.401 399.501 156.048 397.515 156.498 396.086
C 156.772 395.217 157.838 394.469 158.477 393.858
C 160.048 392.355 161.545 390.846 162.986 389.221
C 163.271 391.526 162.819 394.15 162.823 396.494
C 162.832 401.996 162.942 407.501 162.858 413.003
C 162.812 415.963 163.45 420.521 162.094 423.227
C 160.753 425.903 157.548 428.197 155.452 430.289
C 149.908 435.82 144.107 441.166 138.199 446.302
C 136.149 448.084 134.251 450.04 132.302 451.928
C 131.474 452.73 130.065 453.748 129.669 454.858
C 129.105 456.436 129.562 458.761 129.563 460.44
C 129.564 464.649 129.377 468.914 129.659 473.116
C 130.993 475.826 134.795 478.288 137.001 480.348
C 141.304 484.368 145.585 488.411 149.999 492.308
C 151.669 493.782 153.301 495.992 155.237 497.07
C 159.894 497.451 164.696 496.8 169.374 496.969
C 172.131 497.069 175.546 497.702 178.239 497.082
C 178.77 495.595 179.419 494.09 180.798 493.196
C 185.507 490.145 190.834 494.308 190.31 499.406
C 189.9 503.393 185.093 506.34 181.368 504.613
C 179.165 503.592 178.282 501.682 177.924 499.422
C 177.245 499.032 176.069 499.333 175.265 499.336
C 173.455 499.343 171.629 499.359 169.822 499.307
C 169.333 500.384 169.63 501.988 169.67 503.149
C 169.763 505.872 169.469 508.815 169.891 511.499
C 172.021 514.085 174.886 516.083 177.045 518.688
C 177.524 519.265 178.759 520.999 177.572 521.52
C 175.149 520.515 173.02 517.125 170.983 515.427
C 169.978 514.591 168.484 513.71 167.899 512.52
C 167.148 508.364 167.699 503.666 167.479 499.436
C 164.966 498.824 161.833 499.318 159.234 499.261
C 158.545 499.246 157.045 499.017 156.457 499.347
C 156.364 503.129 156.299 506.953 156.515 510.734
C 156.59 512.045 156.347 513.774 156.825 515.008
C 157.502 516.754 160.033 518.42 161.362 519.698
C 164.753 522.959 169.217 526.278 171.754 530.262
C 172.314 530.329 173.317 529.015 173.829 528.709
C 175.072 527.967 176.857 527.786 178.193 528.308
C 179.198 528.7 180.136 529.324 180.838 530.149
C 185.51 535.632 177.861 544.323 172.119 539.366
C 171.431 538.772 170.902 538.019 170.526 537.193
C 169.548 535.044 170.434 533.429 170.143 531.359
C 169.265 530 167.879 528.986 166.749 527.835
C 164.012 525.045 161.127 522.415 158.31 519.708
C 156.981 518.431 155.366 517.093 154.495 515.445
C 153.852 510.14 154.36 504.529 154.231 499.184
C 150.277 499.503 146.225 499.031 142.276 498.833
C 142.609 503.175 142.326 507.628 142.361 511.985
C 142.373 513.411 141.84 516.151 142.545 517.397
C 143.15 518.468 144.304 519.332 145.141 520.218
C 147.351 522.556 149.748 524.709 152.08 526.923
C 153.307 528.088 155.082 529.576 155.732 531.18
C 156.901 534.069 155.647 538.363 155.91 541.437
C 156.945 541.802 158.113 542.417 158.895 543.192
C 164.669 548.912 154.163 558.292 149.073 551.143
C 148.391 550.185 148.03 549.097 147.94 547.929
C 147.84 546.636 147.936 545.085 148.597 543.936
C 149.261 542.782 150.677 542.077 151.941 541.802
C 152.449 541.691 153.565 541.891 153.902 541.468
C 154.073 539.281 153.934 536.975 153.95 534.773
C 153.958 533.725 154.157 532.371 153.563 531.436
C 151.182 527.688 146.659 524.628 143.543 521.467
C 142.603 520.513 140.88 519.265 140.395 518.001
C 139.895 516.699 140.208 514.869 140.214 513.498
C 140.23 510.002 140.272 506.5 140.197 503.004
C 140.166 501.56 140.381 499.714 139.866 498.35
C 137.098 496.354 134.393 494.257 131.979 491.838
C 131.676 491.535 129.716 489.6 129.644 489.628
C 129.144 489.824 129.676 490.7 129.677 491.237
C 129.678 493.157 129.667 495.077 129.67 496.998
C 129.679 502.832 129.727 508.666 129.737 514.5
C 129.74 516.625 129.099 520.021 129.971 521.95
C 132.84 525.032 136.021 527.923 139.025 530.882
C 140.275 532.114 141.84 533.205 142.917 534.581
C 143.606 540.487 143.145 546.695 143.134 552.635
C 145.258 553.735 147.453 554.194 148.304 556.773
C 149.753 561.161 145.86 566.065 141.216 565.203
C 136.611 564.349 134.194 558.316 137.345 554.535
C 138.272 553.423 139.506 553.175 140.82 552.792
C 141.332 551.749 140.875 549.714 140.891 548.527
C 140.927 545.781 140.911 543.039 140.883 540.293
C 140.869 539.023 141.098 537.477 140.712 536.258
C 139.181 534.912 137.522 533.753 136.058 532.326
C 134.795 531.094 133.472 529.922 132.22 528.68
C 131.751 528.214 131.271 527.725 130.744 527.323
C 130.438 527.09 130.063 526.271 129.852 526.592
C 129.286 527.454 129.774 530.427 129.764 531.496
C 129.72 536.228 129.631 540.97 129.77 545.701
C 129.807 546.96 129.818 548.251 129.979 549.501
C 130.026 549.871 130.811 551.663 130.498 551.827
C 128.885 550.503 127.79 548.671 126.365 547.175
C 125.965 546.755 125.098 545.548 124.768 546.221
C 126.527 554.33 124.21 562.876 125.57 571.07
C 132.327 572.889 131.168 583.452 124.028 583.205
C 119.948 583.064 116.686 578.906 118.176 574.891
C 119.005 572.656 121.109 571.402 123.323 570.898
C 123.962 564.873 123.306 558.258 123.24 552.179
C 123.226 550.878 123.222 549.492 123.579 548.236
C 123.735 547.686 124.175 547.015 123.709 546.479
C 123.39 546.113 122.522 547.168 122.327 547.379
C 121.206 548.59 120.321 549.995 119.165 551.176
C 118.987 551.357 118.216 552.122 117.929 551.987
C 117.488 551.78 117.693 550.851 117.721 550.504
C 117.841 548.993 118.081 547.509 118.138 545.991
C 118.379 539.64 117.973 533.284 118.142 526.94
C 115.032 529.145 112.272 531.927 109.452 534.484
C 108.711 535.114 107.984 535.756 107.266 536.412
C 106.88 538.289 107.239 540.476 107.237 542.399
C 107.233 545.785 107.035 549.214 107.285 552.592
C 108.969 553.05 110.872 553.686 111.862 555.259
C 114.001 558.657 111.124 563.817 107.439 564.35
C 103.016 564.99 97.715 560.104 100.065 555.443
C 101.111 553.368 103.174 552.954 105.118 552.184
C 105.676 550.893 105.303 548.631 105.292 547.229
C 105.262 543.308 105.267 539.408 104.856 535.531
C 105.739 533.988 107.214 532.879 108.46 531.638
C 110.663 529.446 112.777 527.17 114.974 524.972
C 116.004 523.942 117.262 522.967 118.057 521.738
C 118.672 519.219 118.224 516.095 118.232 513.503
C 118.249 508.169 118.244 502.836 118.25 497.503
C 118.253 495.581 118.183 493.649 118.352 491.732
C 118.398 491.212 118.689 490.063 118.26 489.65
C 116.268 491.852 114.246 493.945 111.989 495.881
C 110.75 496.944 108.881 497.943 108.152 499.43
C 107.751 503.92 107.969 508.493 107.968 512.999
C 107.968 514.838 108.283 517.05 107.85 518.836
C 104.799 522.056 101.507 525.05 98.437 528.257
C 97.285 529.46 95.448 530.896 94.859 532.482
C 94.402 533.715 94.762 535.426 94.818 536.712
C 94.864 537.764 94.424 540.585 95.019 541.334
C 96.531 541.76 98.4 542.256 99.289 543.675
C 101.822 547.712 98.152 552.391 94.01 552.763
C 90.011 553.123 86.286 549.162 87.679 545.109
C 88.576 542.501 90.501 541.696 92.812 540.731
C 93.772 537.716 91.69 534.019 92.94 531.055
C 93.628 529.423 95.203 528.216 96.421 526.995
C 98.514 524.897 100.598 522.787 102.697 520.692
C 103.694 519.697 105.127 518.638 105.836 517.427
C 106.4 511.589 106.177 505.186 105.962 499.333
C 104.906 498.853 103.306 499.207 102.147 499.238
C 99.402 499.312 96.47 499.266 93.769 499.785
C 93.737 503.276 93.634 506.774 93.664 510.271
C 93.683 512.336 94.018 514.68 93.587 516.707
C 92.587 518.152 91.084 519.266 89.808 520.459
C 87.532 522.587 85.305 524.739 82.941 526.772
C 81.254 528.222 79.164 529.509 78.09 531.51
C 78.514 533.131 79.088 534.719 78.403 536.366
C 76.782 540.259 71.387 541.859 68.254 538.813
C 65.219 535.863 65.487 529.903 69.94 528.412
C 73.011 527.383 74.348 528.692 76.974 529.817
C 78.604 528.838 80.1 526.651 81.498 525.307
C 84.744 522.187 88.121 519.106 91.168 515.789
C 92.077 512.803 91.587 509.082 91.634 505.988
C 91.665 503.918 92.074 501.614 91.73 499.582
C 88.511 499.178 84.037 498.987 80.883 499.811
C 80.314 503.992 81.011 508.334 80.356 512.446
C 79.96 513.244 78.858 513.994 78.19 514.595
C 76.641 515.99 75.069 517.367 73.493 518.732
C 72.897 519.247 71.926 520.418 71.089 520.347
C 70.368 519.368 71.409 518.203 72.064 517.494
C 74.015 515.384 76.501 513.639 78.276 511.38
C 78.812 507.641 78.579 503.555 78.712 499.774
C 78.283 499.371 77.518 499.46 76.942 499.47
C 75.391 499.497 73.714 499.431 72.18 499.583
C 70.765 501.427 70.171 503.537 67.85 504.611
C 63.502 506.621 59.214 502.432 59.451 498.108 Z
M 61.932 498.616
C 61.675 503.219 69.042 503.985 69.337 499.527
C 69.456 497.739 68.618 495.708 66.882 494.948
C 64.57 493.937 62.055 496.429 61.932 498.616 Z
M 68.81 532.504
C 67.181 536.823 73.987 540.259 75.82 535.93
C 77.699 531.492 70.469 528.103 68.81 532.504 Z
M 90.323 546.044
C 89.041 550.614 96.043 552.083 97.138 547.892
C 98.392 543.089 91.582 541.557 90.323 546.044 Z
M 102.425 557.589
C 101.44 562.21 108.932 563.602 109.785 558.88
C 110.595 554.398 103.352 553.24 102.425 557.589 Z
M 120.508 577.139
C 120.892 581.785 127.808 581.504 127.63 576.873
C 127.448 572.159 120.136 572.651 120.508 577.139 Z
M 138.824 557.555
C 137.473 562.578 144.707 564.783 146.013 559.829
C 147.102 555.701 140.043 553.026 138.824 557.555 Z
M 150.461 546.604
C 149.914 550.563 154.762 553.507 157.285 549.774
C 160.077 545.646 154.661 542.521 151.262 544.917
C 150.846 545.446 150.659 545.969 150.461 546.604 Z
M 172.427 533.573
C 171.139 537.865 177.879 539.903 179.35 535.61
C 180.008 533.692 178.767 530.579 176.47 530.345
C 174.85 530.181 172.858 532.138 172.427 533.573 Z
M 180.365 498.068
C 179.268 503.316 186.985 503.863 187.803 498.961
C 188.617 494.084 181.345 493.378 180.365 498.068 Z"
opacity="1" fill="rgb(93,73,56)" fill-rule="evenodd" />
<path d="
M 64.382 355.542
C 67.977 348.053 77.502 353.951 79.344 359.728
C 79.686 360.8 80.81 364.407 79.957 365.389
C 77.511 364.444 76.274 361.685 73.595 361.2
C 74.32 363.044 77.829 365.502 77.155 367.624
C 71.185 368.214 62.588 362.244 64.382 355.542 Z"
opacity="1" fill="rgb(67,141,199)" fill-rule="evenodd" />
<path d="
M 75.502 336.614
C 75.705 334.743 75.874 333.075 76.811 331.395
C 79.576 326.437 85.241 327.754 88.922 330.848
C 92.955 334.238 95.071 339.316 95.247 344.527
C 95.316 346.569 95.608 349.825 94.103 351.453
C 93.047 351.259 92.201 349.876 91.577 349.074
C 89.493 346.396 87.997 343.237 85.818 340.675
C 86.517 344.09 87.705 347.352 88.959 350.609
C 89.299 351.494 90.896 353.394 90.831 354.21
C 89.948 354.072 88.972 353.279 88.114 352.956
C 81.153 350.333 75.697 344.365 75.502 336.614 Z"
opacity="1" fill="rgb(82,164,103)" fill-rule="evenodd" />
<path d="
M 86.511 361.617
C 86.717 360.344 85.999 359.9 87.587 360.853
C 89.261 362.006 92.137 363.936 93.015 365.801
C 93.643 367.136 93.322 369.069 93.326 370.504
C 93.337 373.837 93.355 377.17 93.336 380.504
C 93.326 382.189 93.286 383.89 93.364 385.573
C 93.375 385.823 93.668 387.324 93.523 387.386
C 91.418 385.934 88.673 384.898 86.996 382.926
C 86.228 380.985 86.732 378.135 86.734 376.061
C 86.738 371.266 86.87 366.397 86.511 361.617 Z"
opacity="1" fill="rgb(93,87,71)" fill-rule="evenodd" />
<path d="
M 96.393 411.576
C 97.78 407.409 102.303 406.174 106.164 407.915
C 110.178 409.724 114.239 414.499 114.631 418.986
C 114.729 420.109 115.018 423.001 114.351 423.938
C 112.14 422.394 109.881 419.897 108.266 417.755
C 106.34 416.309 107.435 418.684 107.896 419.563
C 108.864 421.409 109.934 423.21 110.847 425.079
C 111.094 425.585 111.657 426.123 111.757 426.671
C 104.258 426.527 95.075 419.896 96.393 411.576 Z"
opacity="1" fill="rgb(84,166,102)" fill-rule="evenodd" />
<path d="
M 100.399 381.071
C 101.54 377.583 105.699 376.613 108.793 378.228
C 112.572 380.201 116.043 385.834 114.605 390.181
C 114.179 390.415 113.304 389.631 112.941 389.406
C 111.583 388.564 110.469 387.26 109.501 386.001
C 108.041 385.225 108.558 386.601 108.962 387.448
C 109.81 389.229 112.211 390.769 112.463 392.766
C 105.886 393.73 99.057 387.89 100.399 381.071 Z"
opacity="1" fill="rgb(87,164,103)" fill-rule="evenodd" />
<path d="
M 101.897 354.048
C 103.254 350.232 107.488 348.895 110.808 351.206
C 114.044 353.458 116.074 358.068 114.649 361.916
C 113.465 365.115 109.898 365.192 107.148 364.136
C 103.242 362.637 100.415 358.215 101.897 354.048 Z"
opacity="1" fill="rgb(80,165,99)" fill-rule="evenodd" />
<path d="
M 115.418 320.095
C 115.947 317.714 116.617 315.514 117.75 313.34
C 120.418 308.216 125.655 304.342 130.693 309.088
C 131.632 309.973 132.471 310.982 133.138 312.09
C 137.068 318.616 136.668 327.736 132.094 333.852
C 130.845 335.522 129.005 337.836 126.932 338.465
C 126.599 337.256 126.85 335.834 126.847 334.584
C 126.84 332.215 126.688 329.832 126.453 327.475
C 126.317 326.112 126.219 324.745 126.134 323.378
C 126.108 322.957 126.16 322.272 125.819 322.024
C 125.627 321.884 125.659 322.473 125.579 322.697
C 124.372 326.074 123.826 329.737 123.111 333.245
C 122.919 334.187 123.003 336.687 122.346 337.315
C 121.278 337.046 120.174 335.147 119.485 334.319
C 116.309 330.5 114.718 324.994 115.418 320.095 Z"
opacity="1" fill="rgb(178,104,165)" fill-rule="evenodd" />
<path d="
M 131.923 408.578
C 133.368 403.332 141.333 396.054 146.821 400.693
C 148.128 401.798 148.41 403.619 148.382 405.245
C 148.304 409.703 144.478 413.325 140.448 414.653
C 138.298 415.361 135.824 415.669 133.563 415.576
C 133.761 413.59 136.989 411.243 138.314 409.836
C 138.798 409.322 140.063 408.425 139.692 407.627
C 137.68 408.458 135.891 410.09 134.05 411.265
C 133.528 411.598 132.269 412.638 131.768 412.132
C 131.772 410.947 131.779 409.755 131.923 408.578 Z"
opacity="1" fill="rgb(213,124,77)" fill-rule="evenodd" />
<path d="
M 132.406 374.069
C 134.377 368.778 138.827 363.379 145.01 363.779
C 146.769 363.893 149.024 364.419 150.113 365.94
C 151.274 367.562 150.953 370.562 150.479 372.373
C 148.807 378.758 141.499 383.049 135.145 382.591
C 135.389 380.026 138.528 377.496 140.14 375.676
C 140.787 374.945 141.771 374.124 141.761 373.072
C 138.664 374.853 135.93 378.093 132.383 378.997
C 131.862 377.446 132.029 375.638 132.406 374.069 Z"
opacity="1" fill="rgb(219,94,97)" fill-rule="evenodd" />
<path d="
M 135.948 343.1
C 136.412 341.161 136.908 339.349 138.108 337.712
C 138.861 336.684 139.834 335.78 140.916 335.102
C 144.124 333.091 149.165 334.098 149.628 338.444
C 150.104 342.914 146.494 346.484 142.689 348.093
C 141.35 348.66 139.196 349.223 137.809 348.595
C 138.344 346.423 140.259 345.004 141.415 343.161
C 141.604 342.859 142.397 341.629 142.231 341.308
C 140.701 342.536 139.28 343.939 137.605 344.966
C 137.1 345.276 136.217 346.006 135.695 345.599
C 135.819 344.765 135.812 343.931 135.948 343.1 Z"
opacity="1" fill="rgb(215,101,103)" fill-rule="evenodd" />
<path d="
M 156.329 367
C 157.526 364.804 160.034 362.464 162.1 361.075
C 162.404 364.844 162.203 368.716 162.222 372.501
C 162.234 375.035 162.552 377.787 162.126 380.288
C 161.399 381.722 159.687 382.628 158.632 383.826
C 158.437 384.048 156.879 386.002 156.743 385.645
C 156.214 384.263 156.464 381.973 156.392 380.478
C 156.196 376.393 155.096 370.938 156.329 367 Z"
opacity="1" fill="rgb(98,79,61)" fill-rule="evenodd" />
<path d="
M 159.988 438.221
C 163.43 438.368 166.855 438.678 170.198 439.539
C 171.842 439.963 174.283 441.299 175.972 441.017
C 175.653 439.832 173.114 438.914 172.089 438.381
C 168.957 436.754 165.52 435.253 162.961 432.787
C 165.078 430.65 168.232 430.353 171.115 430.461
C 177.018 430.683 183.384 433.605 187.499 437.824
C 189.507 439.883 191.152 442.498 190.836 445.494
C 190.367 449.935 183.827 451.275 180.19 451.069
C 171.614 450.584 163.046 446.672 159.988 438.221 Z"
opacity="1" fill="rgb(221,141,85)" fill-rule="evenodd" />
<path d="
M 166.438 382.583
C 168.454 374.69 175.811 368.283 184.018 367.674
C 188.402 367.349 195.098 368.764 195.558 374.145
C 195.729 376.149 194.314 378.516 193.151 380.039
C 189.538 384.772 183.421 387.425 177.585 387.851
C 175.605 387.995 170.889 388.1 169.55 386.399
C 172.008 383.831 175.697 381.631 178.72 379.77
C 179.072 379.553 181.938 377.812 181.305 377.291
C 177.976 379.169 173.946 380.309 170.381 381.722
C 169.312 382.146 167.411 383.524 166.283 383.314
C 166.335 383.07 166.386 382.827 166.438 382.583 Z"
opacity="1" fill="rgb(216,100,109)" fill-rule="evenodd" />
<path d="
M 175.819 407.171
C 179.287 399.271 189.521 395.9 197.682 397.497
C 200.751 398.097 204.86 399.503 206.151 402.68
C 207.779 406.685 203.698 410.489 200.74 412.448
C 193.381 417.322 184.564 417.32 176.991 412.96
C 177.598 411.958 178.692 411.54 179.72 411.05
C 181.884 410.018 184.164 408.925 186.505 408.362
C 187.47 408.129 188.433 407.901 189.393 407.649
C 189.408 407.645 190.338 407.462 190.355 407.342
C 190.442 406.716 187.306 407.094 186.922 407.127
C 183.297 407.437 179.457 407.631 175.823 407.558
C 175.821 407.429 175.82 407.3 175.819 407.171 Z"
opacity="1" fill="rgb(223,135,87)" fill-rule="evenodd" />
<path d="
M 205.819 435.073
C 206.001 434.375 205.873 434.726 206.221 434.026
C 207.324 433.02 208.452 433.116 209.853 433.007
C 212.596 432.794 215.377 432.851 218.129 432.817
C 228.644 432.688 243.681 431.58 248.035 443.838
C 249.7 448.526 249.185 455.107 246.023 459.08
C 244.891 460.502 242.235 461.48 241.558 462.985
C 243.481 463.833 245.394 464.598 246.87 466.169
C 252.977 472.669 251.827 485.077 244.71 490.337
C 237.68 495.533 228.161 494.74 219.887 494.718
C 216.76 494.71 213.629 494.767 210.502 494.703
C 209.024 494.672 207.329 494.753 206.313 493.509
C 205.647 491.654 205.86 489.146 205.842 487.192
C 205.804 482.96 205.826 478.729 205.827 474.497
C 205.828 461.421 205.098 448.126 205.819 435.073 Z
M 216.73 442.689
C 216.905 446.44 216.748 450.239 216.779 453.998
C 216.789 455.141 216.402 457.428 216.932 458.397
C 221.129 458.261 225.471 458.976 229.639 458.479
C 231.386 458.271 233.16 458.2 234.713 457.266
C 239.242 454.543 238.956 446.509 234.465 443.902
C 229.462 440.999 222.238 442.322 216.73 442.689 Z
M 216.778 467.699
C 216.931 473.453 216.639 479.228 216.859 484.986
C 222.519 484.485 229.818 486.539 235.056 483.713
C 240.499 480.775 241.688 472.412 235.799 469.155
C 230.491 466.218 222.599 467.248 216.778 467.699 Z"
opacity="1" fill="rgb(81,86,98)" fill-rule="evenodd" />
<path d="
M 207.482 523.083
C 207.537 522.868 207.593 522.654 207.648 522.439
C 208.695 521.894 210.325 522.158 211.502 522.159
C 214.007 522.163 217.054 521.556 219.483 522.126
C 219.584 522.757 219.741 523.289 219.436 523.86
C 218.466 523.783 215.26 523.46 214.777 524.307
C 214.655 527.661 214.525 531.013 214.569 534.372
C 214.574 534.78 214.834 537.288 214.506 537.386
C 213.837 537.35 213.174 537.383 212.504 537.407
C 211.872 536.438 212.238 534.711 212.247 533.571
C 212.272 530.395 212.451 527.141 212.113 523.98
C 210.624 523.95 209.112 523.723 207.626 523.772
C 207.387 523.419 207.472 523.638 207.482 523.083 Z"
opacity="1" fill="rgb(79,86,92)" fill-rule="evenodd" />
<path d="
M 221.268 521.794
C 222.152 521.369 222.728 521.6 223.686 521.697
C 223.762 523.026 222.937 525.309 223.441 526.453
C 226.146 525.851 227.565 524.741 230.084 526.785
C 230.78 527.719 230.664 529.094 230.692 530.21
C 230.752 532.56 231.085 534.992 230.899 537.334
C 230.15 537.321 229.424 537.281 228.681 537.182
C 228.428 534.245 229.184 530.774 228.212 527.951
C 227.012 526.475 224.93 527.328 223.625 528.258
C 222.981 530.113 223.379 532.59 223.402 534.538
C 223.411 535.27 223.71 536.584 223.357 537.205
C 222.634 537.238 221.912 537.479 221.248 537.147
C 220.995 534.46 221.23 531.701 221.201 529.002
C 221.175 526.622 220.853 524.151 221.268 521.794 Z"
opacity="1" fill="rgb(85,91,98)" fill-rule="evenodd" />
<path d="
M 232.918 530.09
C 233.302 528.355 234.05 526.715 235.734 525.888
C 239.687 523.947 244.273 527.547 243.092 531.819
C 241.678 532.79 239.185 532.339 237.577 532.317
C 237.088 532.311 235.989 532.152 235.556 532.424
C 234.139 533.314 236.948 535.336 237.794 535.569
C 239.661 536.084 241.734 534.806 243.448 535.456
C 243.085 538.333 238.301 538.075 236.219 537.171
C 233.247 535.881 232.635 533.056 232.918 530.09 Z
M 235.392 528.999
C 235.054 529.843 235.153 529.411 235.084 530.29
C 236.325 531.089 238.006 530.721 239.412 530.743
C 239.859 530.75 240.628 530.914 240.912 530.473
C 241.187 528.952 239.641 527.029 238.059 527.1
C 236.863 527.154 236.003 528.066 235.392 528.999 Z"
opacity="0.996" fill="rgb(87,95,101)" fill-rule="evenodd" />
<path d="
M 249.682 535.725
C 251.319 535.667 256.373 537.037 256.999 534.548
C 256.11 531.689 251.039 532.872 250.229 529.531
C 250.211 525.585 254.954 524.466 258.045 525.817
C 258.61 526.39 258.713 526.982 258.768 527.763
C 257.122 527.452 254.802 526.817 253.25 527.632
C 252.667 528.286 252.624 528.758 252.752 529.624
C 254.539 531.096 257.29 530.863 258.937 532.566
C 259.462 533.534 259.444 534.701 258.868 535.638
C 257.048 537.359 254.749 538.213 252.232 537.731
C 250.984 537.492 249.567 537.151 249.682 535.725 Z"
opacity="0.996" fill="rgb(86,92,91)" fill-rule="evenodd" />
<path d="
M 254.676 449.773
C 256.702 448.971 259.085 449.254 261.231 449.292
C 262.224 449.309 263.312 449.179 264.198 449.69
C 266.45 451.782 267.226 456.342 268.172 459.204
C 270.552 466.401 273.736 473.565 275.593 480.906
C 275.892 481.085 276.672 478.197 276.799 477.734
C 277.376 475.624 278.209 473.592 278.839 471.499
C 280.376 466.391 282.362 461.409 283.963 456.318
C 284.605 454.277 285.056 450.961 286.645 449.477
C 289.628 448.964 293.402 449.011 296.369 449.608
C 296.106 452.69 294.859 455.563 293.902 458.481
C 291.916 464.537 289.564 470.505 287.257 476.444
C 284.487 483.574 281.763 490.748 279.095 497.915
C 277.591 501.952 276.415 506.783 274.107 510.435
C 273.292 510.828 272.026 510.586 271.136 510.572
C 268.563 510.531 265.9 510.037 263.341 510.187
C 264.121 505.79 266.837 501.642 268.205 497.394
C 268.685 495.901 269.586 494.159 269.341 492.557
C 268.835 489.248 267.022 485.69 265.886 482.539
C 263.46 475.811 260.927 469.124 258.435 462.42
C 257.086 458.789 254.166 453.681 254.676 449.773 Z"
opacity="1" fill="rgb(81,87,98)" fill-rule="evenodd" />
<path d="
M 260.981 530.599
C 261.264 525.435 267.358 523.311 270.564 527.588
C 271.51 528.849 271.585 530.558 271.478 532.074
C 271.143 536.777 264.539 540.305 261.551 535.408
C 260.778 534.14 260.903 532.015 260.981 530.599 Z
M 263.407 529.573
C 262.99 531.138 262.932 533.644 264.097 534.903
C 265.601 536.529 268.387 535.703 269.058 533.675
C 269.546 532.201 269.562 529.712 268.668 528.394
C 267.083 526.059 264.061 527.115 263.407 529.573 Z"
opacity="0.996" fill="rgb(92,93,94)" fill-rule="evenodd" />
<path d="
M 273.446 525.61
C 273.797 524.261 273.831 522.583 275.088 521.705
C 276.609 520.644 279.629 520.808 279.75 523.014
C 278.696 523.414 277.519 523.2 276.418 523.416
C 276.079 524.051 275.982 524.6 275.929 525.314
C 276.723 525.661 277.195 525.369 277.987 525.346
C 279.051 525.316 280.345 525.714 281.401 525.887
C 281.823 524.83 282.134 523.743 282.62 522.71
C 284.761 521.799 283.705 524.573 283.754 525.593
C 284.736 525.522 285.695 525.347 286.678 525.257
C 286.881 525.853 286.961 526.532 286.704 527.122
C 285.791 527.47 284.514 527.019 283.844 527.791
C 283.741 530.231 283.703 532.665 283.798 535.105
C 284.602 535.835 286.359 535.024 287.205 534.653
C 287.238 535.521 287.281 536.268 286.979 537.099
C 285.45 537.647 283.493 537.168 281.957 536.869
C 281.31 536.178 281.372 535.043 281.341 534.134
C 281.264 531.851 281.116 529.339 281.377 527.077
C 280.302 526.332 277.551 527.179 276.326 527.364
C 275.755 530.256 275.864 534.251 276.209 537.182
C 275.437 537.06 274.594 537.2 273.805 537.137
C 273.854 534.574 273.882 531.988 273.773 529.426
C 273.719 528.155 273.335 526.875 273.446 525.61 Z"
opacity="1" fill="rgb(92,93,96)" fill-rule="evenodd" />
<path d="
M 288.45 526.06
C 288.564 525.816 288.679 525.573 288.793 525.33
C 289.386 525.329 289.976 525.231 290.494 525.544
C 291.507 528.129 291.632 531.232 292.478 533.927
C 293.113 533.829 293.243 532.333 293.3 531.847
C 293.487 530.238 293.532 526.834 294.557 525.585
C 294.893 525.175 295.642 525.48 296.032 525.597
C 297.157 528.465 297.938 531.72 298.679 534.715
C 299.241 535.127 299.553 533.21 299.688 532.752
C 300.351 530.498 300.023 528.058 300.654 525.779
C 301.166 525.651 302.203 525.4 302.695 525.685
C 303.112 525.927 302.482 528.311 302.418 528.673
C 301.963 531.231 302.006 535.112 300.204 537.152
C 299.516 537.455 298.879 537.491 298.195 537.17
C 296.932 536.034 296.657 533.715 296.109 532.165
C 295.972 531.776 295.851 530.14 295.356 530.682
C 294.996 532.038 294.521 533.539 294.32 534.923
C 294.226 535.565 294.23 536.649 293.727 537.099
C 293.057 537.27 292.339 537.3 291.651 537.249
C 290.442 534.247 287.838 529.297 288.45 526.06 Z"
opacity="1" fill="rgb(89,91,94)" fill-rule="evenodd" />
<path d="
M 298.924 450.525
C 299.001 450.333 299.079 450.141 299.156 449.949
C 300.885 449.766 302.583 449.75 304.318 449.685
C 304.68 446.019 303.612 442.028 304.817 438.474
C 306.656 437.253 310.19 437.738 312.329 437.816
C 313.271 437.85 314.109 438.011 314.805 438.674
C 315.198 439.832 314.956 441.159 314.948 442.364
C 314.932 444.829 315.027 447.285 315.064 449.744
C 318.831 449.605 322.876 449.343 326.618 449.838
C 327.607 451.763 327.134 456.117 326.731 458.198
C 322.858 458.781 318.716 458.506 314.8 458.633
C 315.006 465.193 314.683 471.789 314.723 478.353
C 314.74 481.071 314.649 484.524 317.344 486.068
C 320.086 487.639 324.264 486.204 327.141 485.75
C 327.916 487.419 328.671 490.921 328.064 492.71
C 325.94 495.012 322.587 495.043 319.696 495.454
C 318.01 495.694 316.245 495.628 314.561 495.376
C 301.591 493.435 304.389 476.919 304.396 467.417
C 304.398 465.386 304.391 463.355 304.403 461.324
C 304.407 460.58 304.595 459.445 304.273 458.784
C 302.699 458.644 300.854 458.655 299.407 457.98
C 298.119 456.088 298.616 452.671 298.924 450.525 Z"
opacity="1" fill="rgb(81,87,99)" fill-rule="evenodd" />
<path d="
M 304.324 533.031
C 305.6 530.113 309.248 530.162 311.929 529.847
C 311.818 528.552 311.121 527.649 309.951 527.089
C 307.957 526.81 306.727 528.298 304.834 528.382
C 304.942 524.424 311.118 524.938 313.215 526.964
C 314.982 528.671 314.301 531.989 314.367 534.22
C 314.398 535.27 314.541 536.32 314.388 537.365
C 312.961 537.519 312.439 537.403 311.809 536.094
C 310.856 536.371 310.249 537.243 309.285 537.577
C 306.203 538.643 303.891 535.857 304.324 533.031 Z
M 306.398 533.561
C 306.447 534.344 306.451 534.945 307.044 535.507
C 309.712 537.362 312.798 533.866 311.511 531.247
C 309.613 531.054 307.322 531.752 306.398 533.561 Z"
opacity="0.996" fill="rgb(90,94,96)" fill-rule="evenodd" />
<path d="
M 317.377 526.581
C 317.538 526.042 317.512 525.775 317.931 525.369
C 318.824 525.236 318.933 525.535 319.042 526.36
C 320.395 526.94 321.8 524.707 323.222 525.372
C 323.359 527.877 321.731 527.417 319.854 528.365
C 318.566 531.068 320.363 534.561 319.358 537.165
C 318.628 537.202 317.919 537.159 317.191 537.152
C 316.795 533.903 316.765 529.801 317.377 526.581 Z"
opacity="1" fill="rgb(87,96,101)" fill-rule="evenodd" />
<path d="
M 324.464 530.105
C 325.212 526.585 329.789 523.338 333.019 526.564
C 334.501 528.044 334.409 530.051 334.389 532.001
C 334.042 532.357 332.818 532.194 332.309 532.214
C 330.53 532.286 328.219 531.77 326.65 532.744
C 327.001 533.74 327.287 534.695 328.16 535.371
C 330.045 535.813 332.894 534.642 334.47 535.428
C 334.083 537.961 328.977 538.093 327.064 537.068
C 324.48 535.683 324.167 532.732 324.464 530.105 Z
M 326.898 529.556
C 326.763 530.162 326.809 529.844 326.774 530.509
C 328.084 530.662 331.179 531.335 332.248 530.366
C 332.509 528.6 330.739 526.736 328.911 527.268
C 327.801 527.59 327.306 528.568 326.898 529.556 Z"
opacity="1" fill="rgb(82,91,101)" fill-rule="evenodd" />
<path d="
M 332.398 459.087
C 334.764 449.504 345.111 448.268 353.52 448.881
C 356.512 449.1 360.991 449.431 363.124 451.739
C 363.662 454.191 362.99 456.739 362.699 459.171
C 361.491 459.572 359.598 458.854 358.393 458.598
C 354.694 457.813 350.764 457.313 346.987 457.702
C 345.002 457.907 343.088 458.83 342.565 460.906
C 341.422 465.447 348.705 467.244 351.672 468.27
C 357.19 470.179 364.11 472.826 365.495 479.216
C 365.859 480.894 365.838 482.739 365.651 484.44
C 364.443 495.482 349.831 496.166 341.352 495.249
C 338.67 494.958 335.106 494.663 332.917 492.96
C 332.344 491.072 332.497 487.604 333.532 485.899
C 335.204 484.627 338.426 485.89 340.294 486.253
C 344.354 487.042 350.169 487.888 353.797 485.342
C 356.537 483.419 354.987 480.283 352.53 478.96
C 345.147 474.982 332.975 473.975 332.194 463.444
C 332.088 462.004 332.132 460.507 332.398 459.087 Z"
opacity="1" fill="rgb(81,86,98)" fill-rule="evenodd" />
<path d="
M 341.443 528.073
C 342.524 524.842 346.491 525.414 349.16 525.694
C 349.432 526.384 349.315 527.088 349.331 527.816
C 347.541 527.628 345.362 526.938 343.888 528.416
C 343.876 530.831 347.697 530.697 349.326 531.696
C 350.212 532.711 350.792 534.856 349.918 536.02
C 347.485 537.941 344.405 538.008 341.584 536.936
C 341.069 535.832 341.846 535.435 342.882 535.534
C 344.575 535.696 348.844 536.658 348.095 533.65
C 346.041 531.454 341.137 532.496 341.443 528.073 Z"
opacity="1" fill="rgb(81,88,98)" fill-rule="evenodd" />
<path d="
M 351.929 529.58
C 352.417 528.313 352.727 527.105 353.92 526.292
C 357.894 523.586 362.167 527.705 361.256 531.791
C 358.875 532.603 356.293 531.904 353.861 532.429
C 354.197 537.099 357.965 535.424 361.082 535.125
C 361.133 535.798 361.29 536.417 360.89 537.021
C 356.818 538.291 351.982 537.645 351.636 532.577
C 351.567 531.569 351.697 530.559 351.929 529.58 Z
M 353.873 530.197
C 353.89 530.303 353.907 530.408 353.924 530.514
C 355.479 530.438 357.862 531.248 359.264 530.338
C 359.513 528.667 357.533 526.744 355.872 527.407
C 354.733 527.862 354.397 529.225 353.873 530.197 Z"
opacity="1" fill="rgb(78,83,98)" fill-rule="evenodd" />
<path d="
M 363.965 526.043
C 364.353 525.553 364.788 525.299 365.421 525.507
C 365.67 525.985 365.838 526.491 366.089 526.967
C 367.343 526.777 368.362 525.652 369.672 525.295
C 371.259 527.275 366.858 527.909 366.191 528.796
C 366.057 531.523 365.784 534.295 366.002 537.024
C 365.616 537.425 364.299 537.158 363.765 537.122
C 363.848 534.908 363.956 532.668 363.824 530.454
C 363.737 528.99 363.384 527.44 363.965 526.043 Z"
opacity="1" fill="rgb(69,72,95)" fill-rule="evenodd" />
<path d="
M 370.455 470.117
C 370.635 464.092 372.47 458.483 376.755 454.13
C 384.344 446.418 398.771 446.631 406.582 453.799
C 411.952 458.727 412.888 466.874 412.629 473.767
C 412.415 479.451 411.249 485.583 407.209 489.869
C 399.924 497.6 384.318 497.692 376.754 490.341
C 371.537 485.272 370.246 477.098 370.455 470.117 Z
M 381.376 467.589
C 380.574 472.622 380.851 480.298 384.747 484.11
C 388.235 487.522 394.506 487.724 398.113 484.395
C 400.328 482.35 401.425 479.335 401.907 476.42
C 402.779 471.15 402.503 464.15 398.49 460.122
C 394.92 456.539 388.563 456.704 384.972 460.111
C 382.934 462.044 381.811 464.858 381.376 467.589 Z"
opacity="1" fill="rgb(81,87,98)" fill-rule="evenodd" />
<path d="
M 371.438 526.027
C 372.29 525.42 372.675 525.516 373.607 525.874
C 374.234 528.008 374.891 530.15 375.453 532.304
C 375.635 532.999 375.709 534.254 376.35 534.651
C 377.161 533.746 377.329 532.032 377.584 530.887
C 377.978 529.111 378.528 527.094 379.517 525.566
C 380.181 525.504 380.609 525.393 381.138 525.839
C 381.427 526.917 380.591 527.922 380.267 528.909
C 379.372 531.638 378.719 534.481 377.635 537.144
C 377.005 537.462 375.959 537.366 375.289 537.227
C 374.133 535.002 373.461 532.543 372.706 530.168
C 372.276 528.816 371.465 527.465 371.438 526.027 Z"
opacity="1" fill="rgb(76,79,105)" fill-rule="evenodd" />
<path d="
M 382.848 522.494
C 382.932 522.313 383.017 522.131 383.101 521.95
C 384.002 521.896 386.316 522.664 385.017 523.969
C 383.755 523.985 382.788 524.011 382.848 522.494 Z"
opacity="0.988" fill="rgb(75,79,82)" fill-rule="evenodd" />
<path d="
M 382.949 526.586
C 383.292 525.431 384.142 525.741 385.104 525.771
C 385.633 526.357 385.259 527.697 385.231 528.465
C 385.155 530.575 385.239 532.69 385.161 534.799
C 385.135 535.479 385.283 536.523 384.813 537.015
C 384.276 537.094 383.315 537.456 382.863 537.1
C 382.891 533.631 382.469 530.029 382.949 526.586 Z"
opacity="1" fill="rgb(82,86,113)" fill-rule="evenodd" />
<path d="
M 387.472 529.583
C 388.11 527.293 389.432 525.946 391.89 525.618
C 393.648 525.383 395.725 526.191 395.425 528.326
C 394.171 528.084 392.878 526.916 391.546 527.42
C 389.009 528.381 389.137 533.688 390.919 535.202
C 392.451 536.504 394.497 535.204 396.006 534.715
C 396.286 535.421 396.012 536.227 395.43 536.775
C 393.158 537.937 389.579 537.639 388.156 535.277
C 387.215 533.715 387.212 531.33 387.472 529.583 Z"
opacity="0.996" fill="rgb(75,76,103)" fill-rule="evenodd" />
<path d="
M 396.973 531.105
C 397.555 527.842 399.913 524.791 403.631 525.57
C 405.812 526.027 408.778 529.234 407.194 531.609
C 404.614 532.53 401.977 531.95 399.341 532.469
C 400.074 536.504 404.042 536.043 407.13 535.448
C 407.612 535.809 407.007 536.879 406.545 537.059
C 405.143 537.604 403.454 537.728 401.986 537.499
C 398.911 537.017 396.735 534.211 396.973 531.105 Z
M 399.407 530.102
C 399.355 530.276 399.303 530.451 399.251 530.625
C 400.403 531.337 403.821 530.896 405.086 530.527
C 406.227 529.449 404.295 527.532 403.304 527.276
C 401.218 526.737 400.232 528.581 399.407 530.102 Z"
opacity="1" fill="rgb(74,76,103)" fill-rule="evenodd" />
<path d="
M 409.355 527.499
C 409.814 526.788 410.27 526.237 411.026 525.833
C 412.752 525.469 415.443 525.458 417.046 526.245
C 417.052 526.665 417.23 527.583 416.781 527.816
C 415.139 527.736 413.355 526.988 411.841 527.861
C 411.239 529.342 412.961 530.002 414.12 530.408
C 416.315 531.178 418.367 532.606 417.316 535.22
C 416.502 537.246 413.643 537.982 411.695 537.666
C 410.439 537.463 408.492 536.998 409.476 535.331
C 411.054 535.47 416.367 536.797 415.103 533.252
C 412.865 531.38 408.451 531.656 409.355 527.499 Z"
opacity="1" fill="rgb(71,75,93)" fill-rule="evenodd" />
<path d="
M 416.771 450.33
C 418.055 449.454 421.139 449.243 422.644 449.651
C 422.56 446.285 422.269 442.324 423.393 439.102
C 425.7 432.491 432.727 430.544 439.073 431.055
C 441.07 431.216 443.736 430.833 445.423 432.062
C 446.713 433.685 446.394 437.846 445.672 439.7
C 442.057 441.27 434.038 437.139 432.911 443.42
C 432.748 444.33 432.766 445.293 432.777 446.213
C 432.789 447.241 432.744 448.398 432.978 449.397
C 436.287 449.302 439.977 449.026 443.227 449.657
C 443.894 451.318 443.673 453.467 443.679 455.226
C 443.681 456.029 443.842 457.133 443.473 457.866
C 441.731 459.173 437.592 458.379 435.55 458.386
C 434.754 458.388 433.443 458.264 432.868 458.844
C 432.265 467.326 432.885 476.002 432.864 484.505
C 432.858 486.67 432.856 488.836 432.852 491.002
C 432.851 491.95 433.056 493.28 432.408 494.04
C 430.601 495.055 427.843 494.527 425.874 494.483
C 424.854 494.461 423.94 494.519 423.087 493.891
C 421.459 491.86 422.397 486.98 422.41 484.494
C 422.456 475.948 422.096 467.23 422.561 458.705
C 420.81 458.277 418.94 458.39 417.156 458.151
C 416.142 455.957 416.511 452.66 416.771 450.33 Z"
opacity="1" fill="rgb(81,86,97)" fill-rule="evenodd" />
<path d="
M 424.966 527.105
C 425.062 526.653 425.155 526.201 425.255 525.75
C 426.55 525.478 426.664 525.749 427.184 526.851
C 428.09 527.136 428.633 525.853 429.405 525.616
C 430.577 525.256 432.383 525.637 433.332 526.404
C 436.067 528.614 435.72 535.883 432.314 537.382
C 430.451 538.201 428.895 537.081 427.067 537.075
C 427.215 538.654 427.199 540.237 427.294 541.816
C 426.53 541.901 425.754 541.837 424.988 541.86
C 424.453 540.781 424.778 538.919 424.779 537.726
C 424.783 534.216 424.709 530.602 424.966 527.105 Z
M 427.351 529.039
C 427.106 530.973 427.009 533.609 427.52 535.489
C 428.844 535.805 430.002 536.09 431.382 535.799
C 433.379 534.45 432.837 529.499 431.857 527.668
C 430.463 526.567 428.408 527.208 427.477 528.615
C 427.435 528.756 427.393 528.897 427.351 529.039 Z"
opacity="1" fill="rgb(74,79,94)" fill-rule="evenodd" />
<path d="
M 437.472 536.622
C 437.956 533.025 437.127 529.304 437.755 525.74
C 438.94 525.647 439.086 525.904 439.627 526.887
C 441.004 527.084 442.054 525.618 443.622 525.68
C 443.971 527.771 441.437 527.733 440.091 528.738
C 439.108 530.924 439.629 534.926 439.811 537.302
C 439.093 537.452 438.312 537.339 437.578 537.398
C 437.381 536.966 437.445 537.22 437.472 536.622 Z"
opacity="1" fill="rgb(71,79,98)" fill-rule="evenodd" />
<path d="
M 444.448 530.107
C 445.131 525.85 450.715 524.044 453.766 527.237
C 455.21 528.748 454.951 531.842 454.608 533.738
C 453.896 537.674 448.538 539.039 445.656 536.451
C 444.082 535.037 444.141 532.027 444.448 530.107 Z
M 446.462 531.109
C 446.337 532.749 446.233 534.904 447.779 535.96
C 449.946 537.44 452.224 535.5 452.352 533.339
C 452.446 531.755 452.808 529.449 451.702 528.134
C 449.348 525.336 446.65 528.634 446.462 531.109 Z"
opacity="1" fill="rgb(75,79,94)" fill-rule="evenodd" />
<path d="
M 451.967 435.603
C 452.496 431.813 457.525 432.775 460.213 432.787
C 466.643 432.817 473.072 432.778 479.502 432.783
C 482.567 432.785 486.155 432.251 489.047 433.387
C 490.107 434.866 489.352 438.264 489.284 439.989
C 489.259 440.61 489.301 441.451 489.005 442.008
C 486.738 442.494 484.301 442.257 481.999 442.268
C 477.832 442.287 473.665 442.265 469.499 442.267
C 467.438 442.268 465.002 441.939 463.008 442.496
C 463.021 446.148 462.745 449.826 462.8 453.498
C 462.817 454.615 462.499 456.844 463.047 457.796
C 468.501 457.503 474.04 457.749 479.502 457.76
C 481.136 457.763 484.317 457.197 485.645 458.215
C 485.904 460.314 486.064 462.524 485.879 464.641
C 485.81 465.425 485.681 466.472 484.936 466.899
C 482.703 467.361 480.276 467.083 478.005 467.079
C 473.061 467.071 468.053 466.794 463.121 467.175
C 463.06 472.992 462.998 478.865 462.831 484.684
C 469.004 485.037 475.313 484.588 481.507 484.708
C 483.547 484.747 487.099 484.074 488.882 485.071
C 489.897 487.252 490.756 492.868 487.986 494.154
C 485.903 495.121 482.866 494.46 480.636 494.428
C 475.258 494.352 469.875 494.348 464.497 494.359
C 461.909 494.364 459.32 494.41 456.733 494.377
C 455.403 494.359 454.075 494.468 453.143 493.351
C 452.027 492.013 452.326 490.125 452.32 488.498
C 452.308 484.998 452.311 481.498 452.301 477.998
C 452.262 463.864 452.136 449.734 451.967 435.603 Z"
opacity="1" fill="rgb(83,159,122)" fill-rule="evenodd" />
<path d="
M 455.88 526.382
C 456.654 525.931 457.864 526.047 458.715 526.2
C 459.525 528.945 460.002 531.838 461.005 534.517
C 461.83 534.69 462.193 532.536 462.362 531.86
C 462.899 529.711 463.129 525.756 465.952 525.897
C 465.871 528.747 464.654 531.501 463.473 534.055
C 462.986 535.108 462.583 536.355 461.769 537.203
C 461.12 537.48 460.44 537.405 459.761 537.28
C 458.921 536.036 458.673 534.246 458.247 532.818
C 457.587 530.608 456.63 528.552 455.88 526.382 Z"
opacity="1" fill="rgb(81,85,100)" fill-rule="evenodd" />
<path d="
M 467.847 521.897
C 469.332 521.445 470.539 522.053 469.829 523.704
C 468.599 524.109 466.985 523.427 467.847 521.897 Z"
opacity="1" fill="rgb(67,74,73)" fill-rule="evenodd" />
<path d="
M 467.81 525.786
C 468.535 525.68 469.289 525.674 469.984 525.92
C 469.775 529.568 469.456 533.678 470.117 537.287
C 469.359 537.175 468.477 537.478 467.777 537.135
C 467.644 533.417 467.482 529.49 467.81 525.786 Z"
opacity="1" fill="rgb(80,84,104)" fill-rule="evenodd" />
<path d="
M 472.918 529.094
C 473.553 526.884 475.299 525.03 477.86 525.442
C 478.6 525.561 479.584 526.469 480.265 526.376
C 480.52 524.701 479.892 522.951 480.321 521.283
C 480.734 521.256 481.799 521.01 482.11 521.386
C 482.632 522.016 482.37 524.214 482.381 524.982
C 482.42 527.816 482.263 530.653 482.329 533.485
C 482.354 534.54 482.789 536.125 482.507 537.101
C 481.37 537.616 480.494 537.415 479.978 536.361
C 478.727 536.551 477.943 537.463 476.5 537.394
C 472.369 537.197 472.349 532.182 472.918 529.094 Z
M 474.919 529.564
C 474.73 531.338 474.611 533.317 475.504 534.933
C 476.616 535.804 478.749 535.761 479.987 535.135
C 480.597 533.119 480.693 529.788 480.126 527.774
C 478.029 526.367 475.717 527.106 474.919 529.564 Z"
opacity="1" fill="rgb(75,80,89)" fill-rule="evenodd" />
<path d="
M 484.869 529.551
C 485.628 527.639 487.031 525.791 489.249 525.617
C 492.593 525.355 495.772 528.834 494.37 532.217
C 491.855 532.449 489.318 532.284 486.802 532.32
C 486.589 533.206 486.849 533.705 487.383 534.438
C 489.33 537.107 491.676 535.297 494.292 535.163
C 493.892 538.068 489.414 538.268 487.272 536.974
C 484.595 535.357 484.234 532.419 484.869 529.551 Z
M 486.805 530.111
C 486.813 530.269 486.821 530.427 486.829 530.585
C 488.432 531.096 490.7 531.129 492.331 530.667
C 492.993 528.939 491.101 526.939 489.416 527.191
C 488.033 527.399 487.42 529.067 486.805 530.111 Z"
opacity="1" fill="rgb(72,79,90)" fill-rule="evenodd" />
<path d="
M 492.487 449.911
C 494.708 449.563 496.941 449.441 499.186 449.339
C 500.002 449.303 501.179 448.999 501.814 449.607
C 503.822 452.638 504.656 456.684 505.648 460.143
C 507.071 465.106 508.727 470.007 510.345 474.91
C 511.001 476.897 511.796 478.857 512.399 480.858
C 512.645 481.674 512.716 483.031 513.334 483.629
C 514.507 481.277 514.916 478.229 515.679 475.701
C 517.359 470.137 519.014 464.566 520.701 459.005
C 521.579 456.11 522.198 452.379 523.992 449.909
C 524.83 449.485 525.729 449.585 526.636 449.565
C 528.748 449.517 532.117 448.725 533.964 449.998
C 533.314 454.112 531.504 458.112 530.217 462.064
C 528.09 468.599 525.975 475.137 523.735 481.635
C 522.458 485.34 521.658 491.065 518.792 493.913
C 518.131 494.57 516.726 494.623 515.86 494.649
C 513.281 494.728 509.137 495.113 506.728 494.169
C 504.325 491.129 503.741 486.344 502.465 482.759
C 500.313 476.716 498.068 470.598 496.235 464.451
C 494.849 459.803 493.726 454.935 491.989 450.416
C 492.155 450.247 492.321 450.079 492.487 449.911 Z"
opacity="1" fill="rgb(82,160,123)" fill-rule="evenodd" />
<path d="
M 496.873 526.583
C 496.998 526.308 497.124 526.034 497.249 525.759
C 498.599 525.894 498.564 526.386 499.163 527.463
C 500.097 527.191 500.56 525.963 501.49 525.574
C 502.261 525.569 502.864 525.693 503.434 526.225
C 503.629 526.721 503.758 527.169 503.774 527.703
C 498.052 526.746 499 533.551 499.215 537.262
C 498.489 537.154 497.679 537.311 496.949 537.359
C 496.48 536.553 496.769 535.125 496.801 534.208
C 496.886 531.708 496.536 529.05 496.873 526.583 Z"
opacity="0.996" fill="rgb(81,84,95)" fill-rule="evenodd" />
<path d="
M 510.36 525.916
C 511.186 524.702 510.977 523.745 511.381 522.383
C 512.596 521.9 518 520.221 517.347 523.104
C 516.05 523.24 514.82 523.276 513.568 523.682
C 512.082 525.817 515.935 525.55 516.934 525.88
C 516.85 527.594 515.083 527.285 513.768 527.295
C 513.103 530.566 513.942 533.897 513.484 537.165
C 512.804 537.433 511.839 537.333 511.104 537.387
C 510.793 536.232 511.076 534.9 511.085 533.709
C 511.1 531.61 511.003 529.582 511.14 527.496
C 510.997 527.161 510.32 526.834 510.05 526.565
C 510.154 526.348 510.257 526.132 510.36 525.916 Z"
opacity="1" fill="rgb(87,89,99)" fill-rule="evenodd" />
<path d="
M 517.413 529.062
C 518.624 525.475 523.37 524.112 526.198 526.947
C 527.978 528.731 528.189 532.192 527.373 534.484
C 526.195 537.792 521.404 538.611 518.829 536.488
C 516.825 534.835 516.629 531.384 517.413 529.062 Z
M 519.453 531.108
C 519.297 533.283 520.84 537.675 523.836 535.71
C 526.449 533.996 525.672 529.143 523.921 527.147
C 521.075 525.713 519.729 528.859 519.453 531.108 Z"
opacity="1" fill="rgb(81,84,94)" fill-rule="evenodd" />
<path d="
M 529.929 526.591
C 530.024 526.334 530.12 526.077 530.215 525.82
C 531.832 525.731 531.35 526.353 532.11 527.444
C 533.547 526.877 534.16 525.801 535.891 525.683
C 536.399 526.111 536.339 526.846 536.345 527.457
C 535.546 527.552 534.742 527.511 534.016 527.922
C 531.263 529.481 532.247 534.308 532.361 536.918
C 531.586 537.166 530.795 537.051 530 537.027
C 529.568 533.897 529.345 529.699 529.929 526.591 Z"
opacity="1" fill="rgb(85,86,98)" fill-rule="evenodd" />
<path d="
M 535.915 468.604
C 536.772 463.585 537.878 458.59 541.433 454.719
C 548.604 446.911 563.737 445.67 571.064 454.222
C 574.701 458.467 575.32 463.962 575.578 469.32
C 575.651 470.83 576.1 474.132 574.537 475.053
C 572.087 475.569 569.486 475.372 566.998 475.376
C 562.91 475.382 558.823 475.344 554.735 475.306
C 552.322 475.283 549.029 474.808 546.792 475.759
C 546.901 477.254 546.926 478.681 547.5 480.098
C 550.268 486.93 558.668 487.217 564.853 485.994
C 567.219 485.525 570.136 483.706 572.554 484.316
C 574.477 486.585 575.345 491.617 572.161 493.201
C 570.123 494.216 567.483 494.433 565.261 494.818
C 556.554 496.328 545.569 495.767 539.892 487.965
C 535.95 482.547 535.265 475.096 535.915 468.604 Z
M 546.893 465.558
C 546.79 466.087 546.698 466.619 546.603 467.15
C 547.714 467.9 550.157 467.421 551.5 467.423
C 555.816 467.428 560.868 468.136 565.086 467.129
C 566.819 460.497 558.962 456.225 553.446 457.613
C 549.425 458.625 548.08 462.026 546.893 465.558 Z"
opacity="1" fill="rgb(82,160,123)" fill-rule="evenodd" />
<path d="
M 542 525.654
C 542.898 525.686 543.797 525.69 544.695 525.678
C 545.399 527.622 546.234 529.552 546.759 531.557
C 546.969 532.36 547.2 533.999 547.855 534.53
C 549.19 531.749 549.32 528.358 550.892 525.695
C 551.659 525.615 552.393 525.522 553.13 525.78
C 553.224 527.023 551.801 528.784 551.387 529.974
C 550.259 533.217 549.662 536.788 548.309 539.927
C 547.774 541.167 546.561 542.162 545.151 542.072
C 544.641 542.039 543.028 541.842 543.233 541.188
C 544.316 540.571 545.684 539.875 546.402 538.829
C 546.694 537.434 545.89 536.303 545.493 535.021
C 544.496 531.796 543.32 528.751 542 525.654 Z"
opacity="0.996" fill="rgb(85,89,96)" fill-rule="evenodd" />
<path d="
M 554.414 528.561
C 556.052 524.807 561.261 524.389 563.795 527.582
C 565.141 529.277 564.881 533.807 563.797 535.588
C 561.874 537.805 556.913 538.98 554.961 536.015
C 553.617 533.974 553.962 530.834 554.414 528.561 Z
M 556.424 529.579
C 556.237 531.083 555.677 533.517 556.633 534.855
C 558.054 536.844 561.089 536.35 561.967 534.104
C 562.424 532.46 562.572 529.9 561.652 528.387
C 560.042 525.739 557.117 527.021 556.424 529.579 Z"
opacity="1" fill="rgb(82,83,94)" fill-rule="evenodd" />
<path d="
M 566.446 526.583
C 566.709 525.483 567.747 525.542 568.686 525.7
C 568.832 528.309 567.761 533.07 569.303 535.272
C 570.549 536.141 572.77 536.19 573.802 534.899
C 574.45 532.09 573.93 528.653 573.909 525.776
C 574.658 525.749 575.375 525.7 576.116 525.824
C 576.587 526.769 576.302 528.429 576.304 529.485
C 576.309 532.088 576.73 534.764 576.652 537.341
C 575.88 537.437 575.072 537.245 574.37 536.936
C 571.662 537.347 569.526 538.142 567.09 536.351
C 565.768 534.01 566.255 529.203 566.446 526.583 Z"
opacity="1" fill="rgb(81,82,93)" fill-rule="evenodd" />
<path d="
M 582.921 451.105
C 583.105 450.513 583.02 450.837 583.161 450.13
C 584.506 448.503 590.06 448.885 592.005 449.396
C 592.832 450.401 592.693 452.098 592.927 453.323
C 593.259 453.636 593.597 453.064 593.885 452.837
C 594.966 451.984 596.027 451.277 597.271 450.686
C 600.57 449.12 604.139 448.365 607.743 449.249
C 607.831 451.498 607.607 453.757 607.43 455.998
C 607.358 456.914 607.512 458.224 607.059 459.045
C 604.389 459.204 601.638 459.12 599.036 459.824
C 597.264 460.303 594.592 461.298 593.706 463.063
C 592.788 464.892 593.364 468.152 593.36 470.143
C 593.349 475.596 593.381 481.05 593.374 486.503
C 593.372 488.419 594.166 492.519 592.911 494.046
C 590.552 495.013 585.519 495.15 583.278 493.982
C 582.702 493.097 582.853 491.704 582.814 490.666
C 582.712 487.947 582.808 485.217 582.808 482.496
C 582.808 475.831 582.767 469.166 582.754 462.501
C 582.747 458.729 582.514 454.859 582.921 451.105 Z"
opacity="1" fill="rgb(82,162,123)" fill-rule="evenodd" />
<path d="
M 584.821 533.035
C 585.334 531.821 586.265 530.97 587.481 530.482
C 588.583 530.265 589.675 530.16 590.799 530.239
C 591.1 530.26 592.135 530.471 592.358 530.294
C 591.958 525.947 588.094 527.727 585.355 527.858
C 584.998 524.755 590.886 525.016 592.488 526.272
C 595.11 528.328 594.875 534.315 594.315 537.341
C 593.933 537.427 592.925 537.655 592.595 537.341
C 592.212 536.978 592.558 536.391 592.093 536.063
C 591.006 536.604 590.198 537.416 588.931 537.626
C 586.005 538.112 584.316 535.717 584.821 533.035 Z
M 586.847 533.557
C 586.726 534.625 586.824 535.275 587.624 536.005
C 589.185 536.613 590.868 535.653 591.937 534.524
C 592.402 533.658 592.29 532.667 592.241 531.723
C 591.205 530.252 587.317 532.14 586.847 533.557 Z"
opacity="1" fill="rgb(82,82,90)" fill-rule="evenodd" />
<path d="
M 597.427 526
C 597.542 525.866 597.657 525.731 597.772 525.596
C 598.648 525.476 598.667 525.684 599.126 526.35
C 599.643 526.836 600.566 525.832 601.11 525.588
C 602.189 525.104 604.115 525.338 605.174 525.809
C 608.767 527.407 606.819 534.115 607.584 537.193
C 606.81 537.273 606.046 537.101 605.275 537.093
C 604.242 534.039 606.219 529.963 603.965 527.317
C 602.394 526.219 600.095 527.361 599.449 529.071
C 598.632 531.237 599.372 535.016 599.407 537.344
C 598.686 537.312 597.992 537.316 597.282 537.161
C 596.966 533.579 596.964 529.567 597.427 526 Z"
opacity="1" fill="rgb(78,76,92)" fill-rule="evenodd" />
<path d="
M 609.258 449.851
C 611.585 448.872 617.47 448.241 619.48 450.057
C 621.35 452.504 622.234 456.63 623.224 459.553
C 625.555 466.433 628.482 473.486 630.032 480.585
C 630.581 480.551 630.733 479.352 630.824 478.905
C 631.224 476.947 631.904 475.058 632.522 473.161
C 634.381 467.462 636.388 461.835 638.511 456.23
C 639.174 454.479 639.762 450.791 641.255 449.62
C 643.761 449.372 646.254 449.328 648.773 449.361
C 649.455 449.37 651.232 449.193 651.446 449.962
C 651.067 454.518 648.213 459.171 646.71 463.46
C 643.162 473.583 639.38 483.614 635.504 493.616
C 634.113 497.206 632.64 500.78 631.322 504.396
C 630.525 506.584 629.872 509.14 628.327 510.937
C 625.348 512.151 621.152 511.266 618.034 511.124
C 619.714 506.798 621.382 502.393 622.744 497.953
C 623.244 496.32 624.315 494.275 624.154 492.541
C 623.888 489.676 621.739 486.387 620.756 483.67
C 618.232 476.689 615.891 469.604 613.123 462.716
C 611.516 458.718 608.971 454.24 609.258 449.851 Z"
opacity="1" fill="rgb(83,161,124)" fill-rule="evenodd" />
<path d="
M 609.844 529.036
C 611.469 525.293 614.25 525.379 617.604 526.164
C 617.795 524.903 617.444 523.191 617.245 521.924
C 617.912 521.688 619.289 521.341 619.837 521.935
C 619.721 527.038 620.507 532.224 620.302 537.296
C 619.044 537.475 618.543 537.378 617.894 536.273
C 616.747 536.789 615.751 537.501 614.449 537.595
C 609.807 537.929 609.054 532.438 609.844 529.036 Z
M 611.925 530.079
C 611.701 531.517 611.593 533.173 612.344 534.49
C 613.376 536.301 616.163 536.662 617.475 534.911
C 618.027 532.816 617.81 530.247 617.758 528.094
C 615.831 525.59 612.623 527.887 611.925 530.079 Z"
opacity="1" fill="rgb(85,84,98)" fill-rule="evenodd" />
<path d="
M 628.086 525.697
C 628.838 525.639 629.479 525.596 630.22 525.663
C 631.135 527.911 632.123 530.209 632.791 532.551
C 632.971 533.181 633.272 534.758 633.863 535.044
C 635.026 533.471 635.361 530.151 635.859 528.251
C 636.062 527.479 636.075 526.23 636.6 525.636
C 637.271 525.564 638.427 525.343 638.917 525.928
C 638.46 529.099 636.574 532.57 635.361 535.533
C 634.571 537.461 634.399 539.727 633.334 541.531
C 632.694 542.068 629.268 542.744 629.153 541.724
C 630.251 540.987 631.535 540.108 632.118 538.881
C 632.576 537.285 631.631 535.85 631.077 534.401
C 630.012 531.616 628.581 528.634 628.086 525.697 Z"
opacity="0.996" fill="rgb(85,88,104)" fill-rule="evenodd" />
<path d="
M 639.483 529.608
C 639.778 528.482 640.078 527.101 641.054 526.344
C 643.486 524.456 647.895 525.192 649.652 527.595
C 651.028 529.478 650.693 532.824 649.857 534.853
C 647.931 537.907 643.11 538.723 640.637 535.85
C 639.309 534.308 639.27 531.523 639.483 529.608 Z
M 641.943 530.112
C 641.76 531.606 641.668 533.615 642.586 534.903
C 644.602 537.733 647.492 535.41 647.839 532.847
C 648.043 531.346 648.237 529.3 647.286 528.005
C 645.377 525.404 642.259 527.535 641.943 530.112 Z"
opacity="1" fill="rgb(84,86,94)" fill-rule="evenodd" />
<path d="
M 652.403 525.872
C 653.159 525.559 653.541 525.553 654.335 525.672
C 655.262 528.459 653.63 532.05 654.966 534.667
C 656.014 536.721 658.824 536.204 659.844 534.432
C 660.325 531.643 659.803 528.628 659.902 525.805
C 660.655 525.671 661.422 525.655 662.181 525.738
C 662.167 528.213 661.862 530.706 662.096 533.177
C 662.207 534.353 662.797 536.22 662.383 537.319
C 660.96 537.558 660.633 537.49 659.957 536.278
C 658.24 536.713 657.033 538.04 655.097 537.481
C 651.241 536.365 652.032 528.909 652.403 525.872 Z"
opacity="1" fill="rgb(82,85,91)" fill-rule="evenodd" />
<path d="
M 653.386 451.062
C 653.58 450.586 653.806 450.141 654.049 449.687
C 655.889 449.246 657.78 449.526 659.65 449.465
C 659.999 449.043 659.69 447.092 659.687 446.5
C 659.673 443.821 659.426 440.989 659.82 438.334
C 661.991 437.459 664.427 437.673 666.733 437.655
C 667.656 437.649 668.772 437.526 669.629 437.912
C 669.95 439.182 669.739 440.695 669.733 441.998
C 669.723 444.538 669.81 447.087 669.738 449.625
C 672.852 449.435 677.555 448.844 680.509 449.904
C 681.812 451.246 681.574 455.969 681.041 457.684
C 680.145 458.358 678.575 458.271 677.499 458.304
C 674.955 458.383 672.271 458.169 669.77 458.682
C 669.769 465.112 669.722 471.547 669.725 477.979
C 669.727 480.711 669.276 484.026 671.801 485.817
C 673.734 487.189 676.625 486.304 678.69 485.736
C 679.518 485.508 681.17 484.945 681.798 485.628
C 682.654 487.485 682.963 490.806 682.396 492.789
C 681.18 494.076 678.884 494.408 677.225 494.772
C 671.519 496.024 663.427 495.558 660.59 489.505
C 658.877 485.85 659.221 481.25 659.295 477.323
C 659.411 471.108 659.265 464.839 659.573 458.635
C 657.657 458.5 655.555 458.616 653.706 458.098
C 652.477 456.504 653.1 452.903 653.386 451.062 Z"
opacity="1" fill="rgb(83,161,123)" fill-rule="evenodd" />
<path d="
M 665.415 526.598
C 665.553 526.098 665.619 525.703 665.841 525.223
C 666.877 525.252 667.25 525.432 667.743 526.309
C 668.933 526.602 670.422 524.523 671.752 525.537
C 671.863 526.058 672.109 526.741 671.759 527.198
C 670.488 527.348 669.104 527.762 668.041 528.481
C 667.326 530.967 667.418 534.66 668.317 537.065
C 668.325 537.151 665.652 537.32 665.338 537.112
C 665.402 533.653 665.01 530.032 665.415 526.598 Z"
opacity="1" fill="rgb(89,94,102)" fill-rule="evenodd" />
<path d="
M 679.816 521.868
C 680.594 521.77 681.497 521.494 682.19 521.947
C 682.241 523.466 681.953 524.982 682.001 526.472
C 683.357 526.406 684.345 525.206 685.895 525.357
C 690.315 525.789 691.368 531.118 689.766 534.601
C 687.775 538.283 683.769 537.759 680.228 537.105
C 679.665 536.026 679.75 534.694 679.728 533.506
C 679.683 531.006 679.71 528.505 679.67 526.004
C 679.649 524.739 679.306 523.014 679.816 521.868 Z
M 682.259 528.476
C 682.218 530.15 681.532 533.942 682.85 535.17
C 683.402 535.439 683.914 535.668 684.539 535.692
C 688.144 535.833 688.494 530.79 687.208 528.342
C 686.458 526.914 684.926 526.395 683.542 527.323
C 683.052 527.652 682.635 528.024 682.259 528.476 Z"
opacity="0.996" fill="rgb(84,91,96)" fill-rule="evenodd" />
<path d="
M 687.933 432.598
C 688.041 431.99 687.978 432.321 688.128 431.607
C 689.955 430.419 693.336 430.889 695.414 430.905
C 696.265 430.912 697.107 430.849 697.815 431.374
C 698.784 433.238 698.261 435.957 698.261 438.001
C 698.262 442.661 698.581 447.401 698.354 452.049
C 701.254 450.843 703.516 449.289 706.773 448.887
C 709.005 448.611 711.279 448.563 713.508 448.911
C 714.813 449.115 716.207 449.476 717.392 450.065
C 727.392 455.035 725.722 468.137 725.78 477.516
C 725.805 481.511 725.795 485.506 725.792 489.5
C 725.792 490.82 726.174 492.895 725.311 493.985
C 724.699 494.385 723.782 494.392 723.066 494.46
C 721.009 494.656 716.054 495.471 715.572 492.612
C 715.151 490.106 715.402 487.337 715.393 484.801
C 715.369 478.612 715.636 472.325 715.173 466.15
C 714.672 459.446 709.916 456.694 703.599 458.525
C 701.811 459.043 700.034 459.926 698.534 461.024
C 697.607 462.96 698.241 466.359 698.24 468.5
C 698.239 474.167 698.252 479.834 698.241 485.501
C 698.237 487.628 699.15 492.695 697.243 494.105
C 694.432 495.024 690.974 494.719 688.214 493.77
C 687.424 492.962 687.779 490.6 687.765 489.499
C 687.715 485.664 687.839 481.832 687.867 477.997
C 687.98 462.885 687.303 447.7 687.933 432.598 Z"
opacity="1" fill="rgb(82,161,124)" fill-rule="evenodd" />
<path d="
M 692.424 525.844
C 693.154 525.779 693.878 525.701 694.601 525.825
C 695.433 528.804 693.825 532.311 694.99 535.269
C 695.953 536.051 698.959 536.074 700.071 535.566
C 700.809 532.723 700.332 529.013 700.301 526.074
C 701.03 525.553 701.816 525.692 702.674 525.765
C 702.85 526.965 702.347 528.307 702.315 529.532
C 702.251 531.947 702.732 534.874 702.133 537.217
C 701.401 537.427 700.521 537.401 699.928 536.904
C 698.251 536.908 696.744 537.914 694.975 537.574
C 693.979 537.382 692.907 536.529 692.561 535.569
C 691.603 532.91 692.274 528.625 692.424 525.844 Z"
opacity="1" fill="rgb(83,93,99)" fill-rule="evenodd" />
<path d="
M 704.454 528.054
C 705.592 525.244 710.16 524.704 712.651 526.099
C 712.85 526.707 712.883 527.239 712.853 527.872
C 710.934 527.669 708.201 526.365 706.83 528.329
C 706.358 530.523 711.384 530.961 712.781 532.166
C 713.293 533.318 713.093 534.635 712.647 535.772
C 711.134 537.78 708.368 537.869 706.137 537.308
C 704.846 536.983 703.391 535.728 704.899 534.55
C 706.033 534.963 707.093 535.886 708.341 535.861
C 709.71 535.833 711.655 534.793 710.639 533.218
C 708.213 531.573 703.948 532.196 704.454 528.054 Z"
opacity="0.996" fill="rgb(84,92,100)" fill-rule="evenodd" />
<path d="
M 715.232 522.309
C 716.333 521.938 717.054 521.899 718.122 522.312
C 718.199 522.911 718.211 523.358 718.122 523.962
C 717.238 524.259 716.311 524.322 715.407 524.119
C 715.233 523.469 715.146 522.969 715.232 522.309 Z"
opacity="0.992" fill="rgb(100,99,95)" fill-rule="evenodd" />
<path d="
M 715.275 525.817
C 716.063 525.603 716.841 525.7 717.643 525.829
C 717.927 526.854 717.398 527.916 717.479 528.95
C 717.687 531.614 717.742 534.585 717.666 537.219
C 716.913 537.206 716.171 537.228 715.419 537.272
C 715.012 535.93 715.27 534.378 715.261 532.988
C 715.246 530.618 715.052 528.176 715.275 525.817 Z"
opacity="1" fill="rgb(99,105,108)" fill-rule="evenodd" />
<path d="
M 720.381 525.89
C 720.532 525.798 720.683 525.706 720.833 525.614
C 722.647 526.143 722.87 526.355 724.643 525.531
C 725.79 525.385 727.945 525.472 728.915 526.05
C 730.504 529.278 730.467 533.769 729.85 537.297
C 729.253 537.3 728.658 537.288 728.062 537.318
C 727.681 536.787 727.876 535.549 727.882 534.898
C 727.897 533.063 728.603 529.834 727.405 528.284
C 726.234 526.768 723.518 527.093 722.71 528.843
C 721.773 530.873 722.092 535.209 722.778 537.294
C 721.974 537.11 721.068 537.182 720.24 537.067
C 720.046 533.413 719.878 529.515 720.381 525.89 Z"
opacity="1" fill="rgb(85,93,100)" fill-rule="evenodd" />
<path d="
M 732.415 529.035
C 733.726 526.745 735.661 524.983 738.513 525.542
C 740.851 526.001 741.868 527.866 742.154 530.026
C 742.227 530.582 742.509 531.607 742.254 532.113
C 739.951 532.121 736.73 531.922 734.578 532.805
C 735.427 536.723 738.943 535.413 741.966 535.492
C 742.074 536.1 742.1 536.758 741.848 537.332
C 739.951 537.622 737.285 537.903 735.441 537.24
C 732.222 536.083 731.54 531.897 732.415 529.035 Z
M 734.328 530.125
C 734.313 530.273 734.299 530.422 734.284 530.57
C 735.684 530.717 737.063 530.742 738.469 530.72
C 738.894 530.714 739.662 530.795 739.908 530.388
C 740.209 528.423 738.527 526.481 736.477 527.428
C 735.291 527.976 734.955 529.104 734.328 530.125 Z"
opacity="1" fill="rgb(83,92,102)" fill-rule="evenodd" />
<path d="
M 734.427 433.107
C 734.582 432.538 734.512 432.854 734.616 432.153
C 735.093 431.527 736.234 431.607 736.975 431.605
C 738.785 431.6 740.588 431.614 742.397 431.653
C 742.993 431.665 744.533 431.446 744.846 431.986
C 744.992 435.075 745.222 438.198 744.723 441.264
C 741.463 442.388 737.752 441.387 734.404 441.52
C 733.998 438.837 734.131 435.801 734.427 433.107 Z"
opacity="1" fill="rgb(78,159,124)" fill-rule="evenodd" />
<path d="
M 735.403 449.845
C 737.982 449.034 742.877 448.546 745.161 450.225
C 745.625 451.531 745.366 453.13 745.377 454.502
C 745.401 457.335 745.425 460.168 745.426 463.001
C 745.428 469.835 745.442 476.669 745.417 483.502
C 745.405 486.579 745.987 490.361 745.222 493.346
C 744.706 494.033 743.79 494.235 742.985 494.377
C 740.803 494.76 737.075 494.895 735.15 493.659
C 734.543 484.678 735.148 475.501 735.203 466.501
C 735.236 461.116 734.481 455.152 735.403 449.845 Z"
opacity="1" fill="rgb(80,161,120)" fill-rule="evenodd" />
<path d="
M 743.867 528.022
C 745.261 524.614 749.226 525.485 752.11 525.744
C 752.603 526.236 752.372 527.131 752.37 527.796
C 750.302 527.553 747.908 526.415 746.315 528.365
C 746.137 529.225 746.341 529.658 747.14 530.016
C 748.707 530.72 750.628 530.788 752.057 531.792
C 754.404 533.441 753.263 536.481 750.814 537.303
C 750.084 537.548 749.306 537.666 748.538 537.687
C 747.189 537.723 745.814 537.465 744.476 537.557
C 744.228 536.793 744.3 536.052 744.393 535.263
C 746.324 535.384 749.868 536.849 751.315 534.873
C 751.351 533.168 749.622 532.82 748.25 532.503
C 745.777 531.931 743.573 530.887 743.867 528.022 Z"
opacity="1" fill="rgb(83,87,100)" fill-rule="evenodd" />
<path d="
M 754.483 528.094
C 755.133 524.599 759.972 525.441 762.584 525.812
C 763.036 526.256 762.895 526.774 762.882 527.365
C 760.831 527.552 759.059 526.935 757.173 528.009
C 756.77 529.408 758.113 529.963 759.241 530.419
C 761.167 531.196 764.002 531.916 763.446 534.634
C 762.911 537.247 760.19 537.87 757.877 537.761
C 756.385 537.691 754.34 537.739 754.97 535.782
C 757.006 535.237 761.583 537.157 761.332 533.514
C 759.163 531.043 754.565 532.602 754.483 528.094 Z"
opacity="1" fill="rgb(78,84,93)" fill-rule="evenodd" />
<path d="
M 755.467 452.116
C 755.529 451.562 755.591 451.01 755.687 450.461
C 757.152 448.886 762.568 448.522 764.332 449.776
C 764.423 450.412 764.569 450.926 764.836 451.51
C 766.501 451.028 768.015 450.16 769.694 449.667
C 774.307 448.311 780.397 448.038 784.787 450.291
C 795.642 455.862 792.815 471.494 792.869 481.499
C 792.89 485.472 793.423 489.885 792.708 493.796
C 792.22 494.331 791.476 494.349 790.789 494.492
C 788.769 494.914 785.728 495.021 783.755 494.388
C 781.682 492.912 782.428 487.544 782.428 485.271
C 782.428 480.182 782.468 475.088 782.371 470
C 782.32 467.313 782.491 464.326 781.309 461.841
C 778.695 456.342 769.115 456.902 765.893 461.654
C 765.409 464.321 765.665 467.287 765.651 469.995
C 765.625 474.996 765.592 479.998 765.591 484.999
C 765.59 487.634 766.135 490.857 765.377 493.4
C 764.862 494.189 763.734 494.29 762.857 494.384
C 760.526 494.631 757.934 494.788 755.763 493.784
C 755.124 492.965 755.404 491.508 755.375 490.498
C 755.304 487.999 755.31 485.498 755.295 482.998
C 755.231 472.761 754.886 462.335 755.467 452.116 Z"
opacity="1" fill="rgb(82,159,122)" fill-rule="evenodd" />
<path d="
M 766.364 522.316
C 767.15 522.138 767.945 522.106 768.745 522.158
C 768.946 525.564 767.979 529.357 768.771 532.679
C 768.203 532.758 767.051 532.635 766.654 532.129
C 766.213 531.567 766.428 530.196 766.417 529.506
C 766.377 527.108 766.401 524.711 766.364 522.316 Z"
opacity="1" fill="rgb(75,81,90)" fill-rule="evenodd" />
<path d="
M 766.219 535.29
C 767.095 534.867 767.949 534.699 768.901 534.959
C 768.941 535.758 769.072 536.967 768.506 537.589
C 766.653 537.874 766.099 537.087 766.219 535.29 Z"
opacity="1" fill="rgb(82,89,108)" fill-rule="evenodd" />
<path d="
M 799.965 469.607
C 800.502 465.489 801.113 461.607 803.138 457.898
C 808.096 448.811 818.89 447.5 828.063 449.286
C 831.676 449.99 837.263 451.201 839.573 454.324
C 839.971 455.976 839.755 457.808 839.755 459.499
C 839.754 462.665 839.748 465.831 839.748 468.997
C 839.748 475.283 839.753 481.569 839.764 487.855
C 839.773 493.19 839.816 498.845 837.332 503.729
C 832.993 512.259 822.985 513.524 814.35 512.77
C 811.134 512.489 807.725 512.063 804.834 510.532
C 804.28 508.451 804.604 504.049 805.673 502.151
C 811.043 502.267 816.052 504.161 821.499 503.431
C 824.405 503.041 827.079 502.037 828.38 499.195
C 828.902 498.053 829.079 496.751 829.216 495.513
C 829.381 494.014 829.692 492.278 829.518 490.779
C 828.118 491.071 826.57 492.442 825.226 493.036
C 823.239 493.915 821.041 494.3 818.879 494.327
C 816.499 494.356 814.093 494.092 811.828 493.33
C 802.165 490.075 799.385 478.703 799.965 469.607 Z
M 810.867 466.58
C 810.049 471.416 810.33 477.668 813.171 481.841
C 816.805 487.177 825.363 485.697 829.126 481.223
C 829.659 479.624 829.479 477.663 829.463 475.998
C 829.43 472.831 829.273 469.669 829.262 466.501
C 829.255 464.591 829.734 462.051 829.186 460.23
C 824.214 457.439 817.031 456.189 813.119 461.321
C 811.905 462.914 811.369 464.677 810.867 466.58 Z"
opacity="1" fill="rgb(80,160,121)" fill-rule="evenodd" />
<path d="
M 838.863 437.263
C 838.696 437.667 838.556 438.045 838.455 438.469
C 837.963 437.498 835.961 438.128 835.196 438.396
C 835.383 439.578 835.818 442.079 835.274 443.155
C 834.728 443.367 833.853 443.738 833.299 443.513
C 833.514 441.791 833.298 439.871 833.752 438.203
C 832.716 437.998 830.297 438.759 830.328 437.386
C 832.007 436.614 834.449 436.791 836.281 436.946
C 837.187 437.023 837.927 437.51 838.863 437.263 Z"
opacity="0.996" fill="rgb(113,177,144)" fill-rule="evenodd" />
<path d="
M 838.863 437.263
C 839.719 436.934 840.673 437.034 841.46 437.512
C 841.965 438.842 842.294 440.212 843.035 441.434
C 844.734 440.74 844.232 438.787 844.873 437.42
C 845.701 437.017 846.699 437.052 847.588 437.218
C 847.732 438.638 847.549 440.348 847.508 441.8
C 847.499 442.147 847.627 442.852 847.424 443.166
C 847.252 443.432 846.589 443.277 846.367 443.227
C 846.043 442.421 846.623 439.688 846.015 439.346
C 845.017 440.443 844.839 442.116 843.757 443.133
C 843.21 443.281 842.706 443.323 842.155 443.194
C 841.166 442.362 841.147 440.272 840.445 439.149
C 839.27 439.933 840.292 442.074 839.758 443.272
C 839.27 443.346 838.805 443.288 838.361 443.083
C 838.145 441.569 838.41 439.992 838.455 438.469
C 838.556 438.045 838.696 437.667 838.863 437.263 Z"
opacity="0.996" fill="rgb(90,156,124)" fill-rule="evenodd" />

</svg>